<?xml version="1.0" encoding="utf-8"?>
<svg height="128" width="128" xmlns="http://www.w3.org/2000/svg"><g fill="#363f40"><path d="M102.934 109.447H25.066l-6.513-6.513v-4.849h36.093l2.84 2.84h13.027l2.84-2.84h36.093v4.849zm-76.692-2.84h75.511l4.849-4.849v-.832H74.529l-2.84 2.84H56.311l-2.84-2.84H21.393v.832zM28.494 98.085h-2.84V55.479a5.687 5.687 0 015.681-5.681v2.84a2.843 2.843 0 00-2.84 2.84zM102.346 98.085h-2.84V55.479a2.844 2.844 0 00-2.84-2.84v-2.841a5.687 5.687 0 015.681 5.681zM51.218 79.622c-4.859 0-8.521-4.58-8.521-10.652 0-4.3.969-9.231 8.521-9.231s8.521 4.934 8.521 9.231c.001 6.069-3.662 10.652-8.521 10.652zm0-17.043c-4.3 0-5.681 1.554-5.681 6.391 0 3.786 1.991 7.811 5.681 7.811s5.681-4.025 5.681-7.811c-.002-4.837-1.38-6.391-5.681-6.391z"/><path d="M62.58 90.984H39.857c-2.309 0-4.261-2.6-4.261-5.681v-3.664l10.657-6.09 1.409 2.466-9.226 5.272v2.017c0 1.738 1 2.841 1.42 2.841h22.723c.422 0 1.42-1.1 1.42-2.841v-2.017l-9.226-5.272 1.409-2.466 10.657 6.09v3.664c.002 3.079-1.95 5.681-4.259 5.681zM69.68 66.84a1.4 1.4 0 01-.544-.108 1.419 1.419 0 01-.876-1.312V52.638H38.436a4.266 4.266 0 01-4.261-4.26V22.814a4.266 4.266 0 014.261-4.261h51.128a4.266 4.266 0 014.261 4.261v25.564a4.266 4.266 0 01-4.261 4.261h-5.089l-13.79 13.785a1.42 1.42 0 01-1.005.416zM38.436 21.393a1.421 1.421 0 00-1.42 1.42v25.564a1.421 1.421 0 001.42 1.42h31.245a1.419 1.419 0 011.42 1.42v10.774l11.774-11.777a1.414 1.414 0 011-.416h5.681a1.421 1.421 0 001.42-1.42V22.814a1.421 1.421 0 00-1.42-1.42z"/><path d="M62.552 34.785h3v2h-3zM68.553 34.785h2v2h-2zM56.553 34.785h3v2h-3zM92.401 90.984h-21.3v-2.84h18.463V68.261h2.84z"/><path d="M73.553 70.785h13v3h-13zM73.553 76.786h13v3h-13zM73.553 82.785h13v3h-13z"/></g><path d="M0 0h128v128H0z" fill="none"/></svg>