<?xml version="1.0" encoding="utf-8"?>
<!-- Generator: Adobe Illustrator 25.3.1, SVG Export Plug-In . SVG Version: 6.00 Build 0)  -->
<svg version="1.1" id="Layer_2" xmlns="http://www.w3.org/2000/svg" xmlns:xlink="http://www.w3.org/1999/xlink" x="0px" y="0px"
	 width="41px" height="41px" viewBox="0 0 41 41" style="enable-background:new 0 0 41 41;" xml:space="preserve">
<g>
	<path d="M16.3,30c-3.6,0-7-1.4-9.5-3.9s-3.9-5.9-3.9-9.5c0-3.6,1.4-7,3.9-9.5c5.2-5.2,13.7-5.2,19,0l0,0c5.2,5.2,5.2,13.7,0,19
		C23.3,28.6,19.9,30,16.3,30z M16.3,3.9c-3.2,0-6.5,1.2-9,3.7c-2.4,2.4-3.7,5.6-3.7,9c0,3.4,1.3,6.6,3.7,9c2.4,2.4,5.6,3.7,9,3.7
		s6.6-1.3,9-3.7c4.9-4.9,4.9-13,0-17.9C22.8,5.1,19.6,3.9,16.3,3.9z"/>
	<path d="M35,37.2c-0.5,0-1-0.2-1.4-0.6l-7.7-7.7l2.8-2.8l7.7,7.7c0.8,0.8,0.8,2,0,2.8C36,37,35.5,37.2,35,37.2z M27,28.9l7.2,7.2
		c0.5,0.5,1.3,0.5,1.8,0c0.5-0.5,0.5-1.3,0-1.8l-0.2-0.2l-7-7L27,28.9z"/>
	<path d="M27.2,28.7l-2.6-2.6l1.3-1.3l2.6,2.6L27.2,28.7z M25.7,26.2l1.5,1.5l0.3-0.3L26,25.9L25.7,26.2z"/>
	<g>
		<path d="M9.8,19.1v-0.4l0.5-0.5c1.2-1.2,1.8-1.8,1.8-2.5c0-0.5-0.2-0.9-0.9-0.9c-0.4,0-0.8,0.2-1,0.4l-0.2-0.5
			c0.3-0.3,0.8-0.5,1.3-0.5c1,0,1.5,0.7,1.5,1.4c0,0.9-0.6,1.6-1.6,2.5l-0.4,0.4v0h2.1v0.5H9.8z"/>
		<path d="M15,19.1v-1.3h-2.2v-0.4l2.1-3h0.7v2.9h0.7v0.5h-0.7v1.3H15z M15,17.3v-1.6c0-0.2,0-0.5,0-0.7h0c-0.1,0.3-0.3,0.5-0.4,0.7
			l-1.2,1.6v0H15z"/>
		<path d="M16.9,19.4l2-5.3h0.5l-2,5.3H16.9z"/>
		<path d="M23.2,14.3v0.4l-2.1,4.3h-0.7l2.1-4.2v0h-2.3v-0.5H23.2z"/>
	</g>
</g>
</svg>
