<svg xmlns="http://www.w3.org/2000/svg" viewBox="0 0 67 67"><g fill="none"><g transform="translate(-110 -109.752)" stroke="#333" stroke-miterlimit="10" stroke-width="2.2"><path d="M160.924 117l-12.715 12.715-4.624-4.624-11.558 11.559-6.935-6.935-8.092 8.091M118 151.503v-10M125 151.503v-17M132 151.503v-10M138 151.503v-15M146 142.503v-10M153 139.503v-9M159 139.503v-16M159.768 152.832a3.468 3.468 0 01-6.935 0v-2.312a3.468 3.468 0 116.935 0zM148.209 166.931v-3a3.261 3.261 0 013.468-3h9.247a3.261 3.261 0 013.468 3v3"/><circle cx="13.5" cy="13.5" r="13.5" transform="translate(143 142.503)"/></g><path d="M0 0h67v67H0z"/></g></svg>