<svg xmlns="http://www.w3.org/2000/svg" viewBox="0 0 41 41"><g transform="translate(-212.5 -116.5)" fill="none" stroke="#222" stroke-miterlimit="10"><path d="M244.652 149.887a16.732 16.732 0 01-1.5 1.217l1.348 2.344-3.009 1.739-1.357-2.348a17.3 17.3 0 01-5.4 1.461v2.7h-3.478v-2.7a17.3 17.3 0 01-5.4-1.461l-1.357 2.348-2.999-1.739 1.357-2.348a17.431 17.431 0 01-3.957-3.952l-2.348 1.357-1.739-3.009 2.348-1.357a17.3 17.3 0 01-1.461-5.4H213v-3.478h2.7a17.3 17.3 0 011.461-5.4l-2.348-1.357 1.739-3.009 2.348 1.353a16.736 16.736 0 011.217-1.5M221.348 124.113a16.731 16.731 0 011.5-1.217l-1.357-2.348 3.009-1.739 1.357 2.348a17.3 17.3 0 015.4-1.461V117h3.478v2.7a17.3 17.3 0 015.4 1.461l1.357-2.348 3.009 1.739-1.353 2.348a17.432 17.432 0 013.957 3.957l2.343-1.357 1.739 3.009-2.348 1.357a17.3 17.3 0 011.461 5.4h2.7v3.478h-2.7a17.3 17.3 0 01-1.461 5.4l2.348 1.357-1.739 2.999-2.348-1.357a16.732 16.732 0 01-1.217 1.5"/><circle cx="13.913" cy="13.913" r="13.913" transform="translate(219.087 123.087)"/><path d="M230.154 126.963a10.064 10.064 0 00-2.732 1.233M222.565 137a10.405 10.405 0 013.349-7.656M240.086 144.656a10.405 10.405 0 003.351-7.656M238.573 145.803a10.006 10.006 0 01-2.731 1.233M241.696 132.652l-8.7 8.7-5.213-5.222"/></g></svg>