<svg xmlns="http://www.w3.org/2000/svg" viewBox="0 0 41 41.125"><g fill="none" stroke="#222" stroke-miterlimit="10"><path d="M40.5 37.022h-3.478v-3.478H40.5zM20.5 21.37V40.5M9.196 17.022v4.348h22.609v-4.348M15.283 17.891h10.435M27.457 28.326v6.957h9.565"/><path d="M23.109 24.848h9.565a7.826 7.826 0 10-2.75-15.146 10.856 10.856 0 00-21.579 1.3 6.954 6.954 0 10-.889 13.85h10.435M11.804 11.369a7.392 7.392 0 017.391-7.391M17.022 37.891L20.5 40.5l3.479-2.609M30.935 30.935l-3.479-2.609-3.478 2.609M.5 33.543h3.478v3.478H.5zM13.543 28.326v6.957H3.978"/><path d="M10.065 30.935l3.478-2.609 3.478 2.609"/></g></svg>