<svg xmlns="http://www.w3.org/2000/svg" viewBox="0 0 80 80"><g fill="none"><g stroke="#222" stroke-width="2"><path d="M33.872 65.192c2.457 0 4.085-2.09 4.085-4.668v-1.558c0-2.578-1.629-4.668-4.085-4.668s-4.085 2.09-4.085 4.668v1.558c0 2.574 1.629 4.668 4.085 4.668zM18.893 67.915c2.457 0 4.085-2.09 4.085-4.668v-1.558c0-2.578-1.629-4.668-4.085-4.668s-4.085 2.09-4.085 4.668v1.558c0 2.574 1.629 4.668 4.085 4.668z" stroke-miterlimit="10"/><path d="M42.042 72v-2.723c0-3.373-5.332-4.085-8.17-4.085s-8.17.712-8.17 4.085V72" stroke-linejoin="round"/><path d="M25.702 69.53c-1.772-1.284-4.871-1.615-6.809-1.615-2.838 0-8.17.712-8.17 4.085" stroke-linejoin="round"/><path d="M48.851 67.915c-2.457 0-4.085-2.09-4.085-4.668v-1.558c0-2.578 1.629-4.668 4.085-4.668s4.085 2.09 4.085 4.668v1.558c0 2.574-1.628 4.668-4.085 4.668z" stroke-miterlimit="10"/><path d="M42.042 69.53c1.772-1.284 4.872-1.615 6.809-1.615 2.839 0 8.17.712 8.17 4.085M16.17 8h34.043a4.085 4.085 0 014.085 4.085v25.872a5.447 5.447 0 01-5.447 5.447H27.064l-5.719 7.626a1.362 1.362 0 01-2.451-.817V43.4h-2.723a4.085 4.085 0 01-4.086-4.081V12.085A4.085 4.085 0 0116.17 8z" stroke-linejoin="round"/><path d="M37.957 46.132a4.085 4.085 0 004.085 4.085h12.255l5.775 6.738a1.362 1.362 0 002.4-.886v-5.851h2.723a4.085 4.085 0 004.085-4.085V21.617a4.085 4.085 0 00-4.089-4.085h-8.17M38.02 25.67a4.116 4.116 0 11-4.116-4.116 4.117 4.117 0 014.116 4.116z" stroke-linejoin="round"/><path d="M43.435 25.671a9.529 9.529 0 00-.264-2.192l2.676-1.546-2.723-4.717-2.67 1.541a9.5 9.5 0 00-3.858-2.226v-3.084h-5.447v3.1a9.511 9.511 0 00-3.82 2.233l-2.708-1.565-2.723 4.717 2.73 1.577a9.249 9.249 0 00.014 4.378l-2.744 1.584 2.723 4.717 2.751-1.588a9.511 9.511 0 003.777 2.194v3.163h5.442V34.81a9.5 9.5 0 003.815-2.188l2.713 1.566 2.723-4.717-2.689-1.552a9.561 9.561 0 00.282-2.248z" stroke-linejoin="round"/></g><path d="M0 0h80v80H0z"/></g></svg>