<svg xmlns="http://www.w3.org/2000/svg" viewBox="0 0 80 80"><g fill="none"><g stroke="#222" stroke-width="2"><path d="M68 56.471v-4.447l-5.425-.494a11.415 11.415 0 00-.9-2.191l3.367-4.3-3.726-3.727-4.3 3.368a11.309 11.309 0 00-2.191-.9l-.66-5.427h-5.271l-.659 5.425a11.309 11.309 0 00-2.191.9l-4.3-3.368-3.726 3.727 3.367 4.3a11.415 11.415 0 00-.9 2.191l-5.426.496v4.447" stroke-miterlimit="10"/><path d="M56.471 56.471v-1.649a4.941 4.941 0 00-9.882 0v1.649M28.471 15.294a4.941 4.941 0 109.882 0" stroke-linejoin="round"/><path d="M7.059 56.471V15.294A3.253 3.253 0 0110.353 12h59.294a3.253 3.253 0 013.294 3.294v41.177M77.883 59.765H48.236l-1.647 1.647h-11.53l-1.647-1.647H2.118v1.647A6.589 6.589 0 008.706 68h62.588a6.589 6.589 0 006.588-6.588z" stroke-miterlimit="10"/><path d="M13.647 15.294v4.941h7.02a13.1 13.1 0 001.4 3.39l-4.964 4.963 4.66 4.66 4.963-4.964a13.123 13.123 0 003.39 1.4v7.02h6.588v-7.02a13.123 13.123 0 003.39-1.4l4.963 4.964 4.658-4.66-4.963-4.963a13.123 13.123 0 001.4-3.39h7.02v-4.941" stroke-miterlimit="10"/></g><path d="M0 0h80v80H0z"/></g></svg>