<svg xmlns="http://www.w3.org/2000/svg" viewBox="0 0 80 80"><g fill="none"><g transform="translate(-42.353 -122.031)" stroke="#222" stroke-width="2"><path stroke-linejoin="round" d="M49 144.542h26.2v11.645H49z"/><path d="M75.2 156.186v11.645H49v-11.645" stroke-linejoin="round"/><path d="M75.2 167.831v11.645H49v-11.645" stroke-linejoin="round"/><circle cx="4.367" cy="4.367" r="4.367" transform="translate(94.122 157.642)" stroke-miterlimit="10"/><path d="M115.701 158.12l-1.822-4.744-4.522 1.341a12.954 12.954 0 00-3.025-3.18l1.575-4.451-4.637-2.066-2.252 4.148a13.03 13.03 0 00-4.387-.116l-2.03-4.26-4.744 1.822 1.341 4.522a13.013 13.013 0 00-3.182 3.025l-4.45-1.575-2.065 4.644 4.148 2.252a13.03 13.03 0 00-.116 4.387l-4.258 2.032 1.822 4.744 4.522-1.341a13 13 0 003.025 3.179l-1.575 4.451 4.642 2.065 2.252-4.148a13.031 13.031 0 004.387.116l2.032 4.258 4.744-1.822-1.341-4.522a12.954 12.954 0 003.18-3.025l4.451 1.575 2.065-4.642-4.148-2.252a13.03 13.03 0 00.116-4.387zM70.834 150.364h-4.367M70.834 162.008h-4.367M70.834 173.653h-4.367M68.65 140.361a16.416 16.416 0 0129.839-1.434" stroke-linejoin="round"/><path d="M99.831 132.928l-1.343 5.792-5.756-.692" stroke-miterlimit="10"/><path d="M98.489 183.842a15.063 15.063 0 01-14.556 10.189c-6.568 0-12.086-3.345-14.556-8.733" stroke-linejoin="round"/><path d="M67.922 191.044l1.456-5.746 5.642.646" stroke-miterlimit="10"/></g><path d="M0 0h80v80H0z"/></g></svg>