<svg xmlns="http://www.w3.org/2000/svg" viewBox="0 0 67 67"><g fill="none"><g transform="translate(-110.864 -206.892)" stroke="#333" stroke-miterlimit="10" stroke-width="2.2"><path d="M158.641 246.313h2.379a10.708 10.708 0 10-3.762-20.723 14.853 14.853 0 00-29.525 1.773 9.762 9.762 0 00-1.216-.086 9.518 9.518 0 100 19.036h3.569M132.467 227.872a10.113 10.113 0 0110.113-10.113M124.939 250.785v16M130.087 254.641l-4.759-3.569-4.759 3.569M162.939 264.785v-15M168.159 261.78l-4.759 3.569-4.759-3.569M154.939 258.785h-21"/><rect width="21" height="33" rx="2" transform="translate(133.939 234.785)"/><path d="M140.939 262.785h7M136.939 238.785h6M136.939 243.785h6M136.939 248.785h6M136.939 253.785h6M145.939 238.785h5M145.939 243.785h5M145.939 248.785h5"/></g><path d="M0 0h67v67H0z"/></g></svg>